<?xml version="1.0" encoding="utf-8"?>
<!-- Generator: Adobe Illustrator 27.5.0, SVG Export Plug-In . SVG Version: 6.00 Build 0)  -->
<svg version="1.1" xmlns="http://www.w3.org/2000/svg" xmlns:xlink="http://www.w3.org/1999/xlink" x="0px" y="0px"
	 viewBox="0 0 2200 2200" style="enable-background:new 0 0 2200 2200;" xml:space="preserve">

<g id="Objects">
	<g>
		<path style="fill:#4EC67F;" d="M945.568,1187.897c-53.853-53.853-95.56-116.674-123.964-186.717
			c-27.423-67.624-41.328-139.063-41.327-212.332c-0.001-73.269,13.904-144.708,41.327-212.332
			c28.403-70.043,70.111-132.864,123.964-186.717c53.853-53.853,116.673-95.56,186.717-123.964
			c67.624-27.423,139.062-41.327,212.332-41.327c73.269,0,144.708,13.904,212.332,41.327
			c70.043,28.404,132.864,70.111,186.716,123.964s95.561,116.674,123.964,186.716c27.423,67.625,41.327,139.063,41.327,212.332
			c0,73.269-13.904,144.708-41.327,212.332c-28.404,70.043-70.111,132.864-123.964,186.717
			c-53.853,53.853-116.674,95.56-186.717,123.964c-67.624,27.423-139.063,41.328-212.332,41.328
			c-73.269,0-144.708-13.904-212.332-41.328C1062.242,1283.458,999.421,1241.75,945.568,1187.897z M1660.715,472.75
			c-42.691-42.691-92.435-75.731-147.851-98.203c-53.554-21.717-110.161-32.729-168.248-32.729
			c-58.087,0-114.693,11.012-168.248,32.729c-55.415,22.471-105.159,55.512-147.851,98.203
			c-42.691,42.691-75.732,92.435-98.203,147.851c-21.717,53.555-32.729,110.161-32.729,168.248
			c0,58.087,11.012,114.693,32.729,168.248c22.472,55.416,55.512,105.159,98.203,147.851
			c42.691,42.691,92.435,75.732,147.851,98.203c53.555,21.717,110.161,32.729,168.248,32.729s114.693-11.012,168.248-32.729
			c55.415-22.472,105.159-55.512,147.851-98.203c42.692-42.691,75.732-92.435,98.203-147.851
			c21.717-53.555,32.729-110.161,32.729-168.248c0-58.087-11.011-114.694-32.729-168.248
			C1736.447,565.186,1703.406,515.441,1660.715,472.75z"/>
		<path style="fill:#1B2D38;" d="M982.872,1251.039l-95.483,95.483l-100.446-100.446l95.483-95.483
			c14.57,18.548,30.323,36.31,47.229,53.216S964.325,1236.469,982.872,1251.039z"/>
		<path style="fill:#1B2D38;" d="M320.019,1813.446L320.019,1813.446c-38.634-38.634-38.634-101.273,0-139.907l431.281-431.281
			l139.907,139.907l-431.281,431.281C421.292,1852.08,358.654,1852.08,320.019,1813.446z"/>
		<polygon style="fill:#4EC67F;" points="1524.035,601.226 1287.347,837.914 1155.559,706.127 1066.39,795.296 1287.347,1016.252 
			1613.204,690.395 		"/>
		<ellipse style="fill:#DDDDDD;" cx="1100" cy="1949.76" rx="730.295" ry="25.73"/>
	</g>
</g>
</svg>
