<svg viewBox="0 0 400 320" xmlns="http://www.w3.org/2000/svg">
  <rect x="0" y="236" width="400" height="84" fill="#091220"/>
  <rect x="0" y="236" width="400" height="3" fill="#1A2840"/>
  <rect x="16" y="56" width="110" height="180" fill="#10203A" rx="6"/>
  <rect x="28" y="70" width="76" height="10" fill="#0A1628" rx="2"/>
  <rect x="28" y="88" width="56" height="7" fill="#0A1628" rx="2"/>
  <rect x="28" y="102" width="66" height="7" fill="#0A1628" rx="2"/>
  <rect x="28" y="116" width="44" height="7" fill="#0A1628" rx="2"/>
  <circle cx="90" cy="156" r="14" fill="#0A1628"/>
  <circle cx="90" cy="156" r="8" fill="#142035"/>
  <circle cx="90" cy="156" r="4" fill="#4F8FFF" opacity=".8"/>
  <rect x="140" y="56" width="120" height="180" fill="#10203A" rx="6"/>
  <rect x="152" y="70" width="96" height="64" fill="#0A1A35" rx="4"/>
  <rect x="156" y="74" width="88" height="56" fill="#0D2348" rx="2"/>
  <rect x="164" y="112" width="10" height="16" fill="#4F8FFF" rx="2" opacity=".85"/>
  <rect x="178" y="102" width="10" height="26" fill="#4F8FFF" rx="2" opacity=".85"/>
  <rect x="192" y="92" width="10" height="36" fill="#4F8FFF" rx="2"/>
  <rect x="206" y="106" width="10" height="22" fill="#3A7AE0" rx="2" opacity=".8"/>
  <rect x="220" y="96" width="10" height="32" fill="#4F8FFF" rx="2" opacity=".85"/>
  <rect x="274" y="56" width="110" height="180" fill="#10203A" rx="6"/>
  <circle cx="292" cy="88" r="6" fill="#4F8FFF" opacity=".8"/>
  <rect x="304" y="84" width="60" height="6" fill="#1A3060" rx="2"/>
  <circle cx="292" cy="108" r="6" fill="#4F8FFF" opacity=".6"/>
  <rect x="304" y="104" width="44" height="6" fill="#1A3060" rx="2"/>
  <circle cx="292" cy="128" r="6" fill="#1A3060" opacity=".6"/>
  <rect x="304" y="124" width="52" height="6" fill="#1A3060" rx="2"/>
  <ellipse cx="237" cy="242" rx="32" ry="7" fill="#000" opacity=".5"/>
  <rect x="216" y="190" width="18" height="54" fill="#1A3560" rx="6"/>
  <rect x="240" y="190" width="18" height="54" fill="#1A3560" rx="6"/>
  <rect x="210" y="236" width="28" height="10" fill="#0A1220" rx="5"/>
  <rect x="238" y="238" width="28" height="10" fill="#0A1220" rx="5"/>
  <rect x="210" y="124" width="54" height="72" fill="#1E3E72" rx="10"/>
  <rect x="235" y="126" width="4" height="66" fill="#162E58" rx="2"/>
  <rect x="214" y="136" width="16" height="10" fill="#2A5AAA" rx="3"/>
  <rect x="186" y="128" width="24" height="42" fill="#1E3E72" rx="8"/>
  <rect x="152" y="140" width="40" height="48" fill="#E8EEF8" rx="4"/>
  <rect x="166" y="136" width="12" height="10" fill="#C0CCD8" rx="3"/>
  <rect x="158" y="152" width="28" height="4" fill="#B0BECE" rx="2"/>
  <rect x="158" y="160" width="22" height="4" fill="#B0BECE" rx="2"/>
  <rect x="158" y="168" width="26" height="4" fill="#B0BECE" rx="2"/>
  <rect x="158" y="176" width="16" height="4" fill="#4F8FFF" rx="2"/>
  <rect x="264" y="130" width="24" height="36" fill="#1E3E72" rx="8"/>
  <ellipse cx="296" cy="168" rx="9" ry="7" fill="#C8906A"/>
  <rect x="228" y="108" width="18" height="18" fill="#C8906A" rx="4"/>
  <circle cx="237" cy="94" r="26" fill="#C8906A"/>
  <path d="M211 88 Q212 72 237 68 Q262 72 263 88 Q258 76 237 74 Q216 76 211 88Z" fill="#2A1408"/>
  <ellipse cx="228" cy="92" rx="4.4" ry="5" fill="#1A0C06"/>
  <ellipse cx="246" cy="92" rx="4.4" ry="5" fill="#1A0C06"/>
  <circle cx="229.6" cy="90.6" r="1.8" fill="#fff" opacity=".55"/>
  <circle cx="247.6" cy="90.6" r="1.8" fill="#fff" opacity=".55"/>
  <path d="M228 102 Q237 110 246 102" stroke="#8B5030" stroke-width="2.4" fill="none" stroke-linecap="round"/>
  <ellipse cx="237" cy="72" rx="30" ry="12" fill="#F5C530"/>
  <rect x="207" y="68" width="60" height="10" fill="#F5C530" rx="2"/>
  <rect x="202" y="76" width="70" height="6" fill="#E0B020" rx="2"/>
</svg>
