<svg viewBox="0 0 400 320" xmlns="http://www.w3.org/2000/svg">
  <rect x="120" y="0" width="160" height="6" fill="#2A2050" rx="2"/>
  <rect x="120" y="6" width="160" height="12" fill="#1A1438" opacity=".6"/>
  <rect x="0" y="216" width="400" height="104" fill="#0A0818"/>
  <rect x="0" y="216" width="400" height="4" fill="#1A1530"/>
  <rect x="20" y="220" width="360" height="14" fill="#141028" rx="4"/>
  <rect x="124" y="176" width="152" height="10" fill="#181428" rx="4"/>
  <rect x="130" y="104" width="140" height="76" fill="#1A1638" rx="6"/>
  <rect x="134" y="108" width="132" height="68" fill="#0C1430" rx="4"/>
  <rect x="138" y="112" width="56" height="60" fill="#E6EEF8" rx="4"/>
  <rect x="142" y="118" width="44" height="5" fill="#9AACC8" rx="2"/>
  <rect x="142" y="126" width="36" height="4" fill="#B0C0D4" rx="2"/>
  <rect x="142" y="134" width="40" height="4" fill="#B0C0D4" rx="2"/>
  <rect x="142" y="142" width="30" height="4" fill="#B0C0D4" rx="2"/>
  <rect x="142" y="150" width="36" height="4" fill="#B0C0D4" rx="2"/>
  <rect x="142" y="158" width="20" height="4" fill="#4F8FFF" rx="2"/>
  <rect x="200" y="116" width="50" height="56" fill="#D8E6F4" rx="4"/>
  <rect x="204" y="122" width="36" height="4" fill="#9AACC8" rx="2"/>
  <rect x="204" y="130" width="28" height="4" fill="#B0C0D4" rx="2"/>
  <rect x="204" y="138" width="32" height="4" fill="#B0C0D4" rx="2"/>
  <circle cx="260" cy="116" r="12" fill="#1FAA48"/>
  <path d="M254 116 L259 122 L266 111" stroke="#fff" stroke-width="3.6" fill="none" stroke-linecap="round" stroke-linejoin="round"/>
  <ellipse cx="84" cy="224" rx="28" ry="6" fill="#000" opacity=".4"/>
  <rect x="68" y="180" width="18" height="48" fill="#1A1534" rx="6"/>
  <rect x="90" y="180" width="18" height="48" fill="#1A1534" rx="6"/>
  <rect x="60" y="110" width="56" height="76" fill="#38206A" rx="10"/>
  <rect x="36" y="114" width="24" height="48" fill="#38206A" rx="8"/>
  <rect x="8" y="100" width="40" height="56" fill="#1C1838" rx="6"/>
  <rect x="12" y="104" width="32" height="44" fill="#0C1028" rx="4"/>
  <rect x="14" y="106" width="28" height="8" fill="#4F8FFF" rx="2" opacity=".85"/>
  <rect x="14" y="118" width="20" height="4" fill="#2A3A58" rx="2"/>
  <rect x="14" y="126" width="24" height="4" fill="#2A3A58" rx="2"/>
  <rect x="14" y="134" width="16" height="4" fill="#2A3A58" rx="2"/>
  <rect x="116" y="124" width="20" height="36" fill="#38206A" rx="8"/>
  <rect x="80" y="92" width="18" height="20" fill="#C08060" rx="4"/>
  <circle cx="89" cy="80" r="24" fill="#C08060"/>
  <path d="M65 74 Q66 56 89 52 Q112 56 113 74 Q108 60 89 58 Q70 60 65 74Z" fill="#1E0C08"/>
  <path d="M65 74 Q60 92 64 110 L72 108 Q68 92 70 74Z" fill="#1E0C08"/>
  <path d="M113 74 Q118 92 114 110 L106 108 Q110 92 108 74Z" fill="#1E0C08"/>
  <ellipse cx="81" cy="78" rx="4" ry="4.8" fill="#180C06"/>
  <ellipse cx="97" cy="78" rx="4" ry="4.8" fill="#180C06"/>
  <circle cx="82.6" cy="76.6" r="1.6" fill="#fff" opacity=".5"/>
  <circle cx="98.6" cy="76.6" r="1.6" fill="#fff" opacity=".5"/>
  <path d="M81 88 Q89 95 97 88" stroke="#8A5830" stroke-width="2.2" fill="none" stroke-linecap="round"/>
  <circle cx="65" cy="84" r="4" fill="#F0C020" opacity=".9"/>
  <ellipse cx="316" cy="224" rx="28" ry="6" fill="#000" opacity=".4"/>
  <rect x="300" y="180" width="18" height="48" fill="#1A2848" rx="6"/>
  <rect x="322" y="184" width="18" height="44" fill="#1A2848" rx="6"/>
  <rect x="292" y="110" width="56" height="76" fill="#1A3A68" rx="10"/>
  <path d="M316 114 L310 130 L320 136 L330 130 L324 114Z" fill="#3A70C0"/>
  <rect x="268" y="120" width="24" height="44" fill="#1A3A68" rx="8"/>
  <ellipse cx="266" cy="166" rx="9" ry="7" fill="#B87850"/>
  <rect x="348" y="124" width="22" height="36" fill="#1A3A68" rx="8"/>
  <rect x="312" y="92" width="18" height="20" fill="#B87850" rx="4"/>
  <circle cx="321" cy="80" r="24" fill="#B87850"/>
  <path d="M297 74 Q298 56 321 52 Q344 56 345 74 Q340 60 321 58 Q302 60 297 74Z" fill="#1A0C04"/>
  <rect x="296" y="56" width="50" height="18" fill="#1A0C04" rx="8"/>
  <ellipse cx="313" cy="78" rx="4" ry="4.8" fill="#180C06"/>
  <ellipse cx="329" cy="78" rx="4" ry="4.8" fill="#180C06"/>
  <circle cx="314.6" cy="76.6" r="1.6" fill="#fff" opacity=".5"/>
  <circle cx="330.6" cy="76.6" r="1.6" fill="#fff" opacity=".5"/>
  <path d="M313 88 Q321 95 329 88" stroke="#7A4828" stroke-width="2.2" fill="none" stroke-linecap="round"/>
  <rect x="4" y="8" width="116" height="52" fill="#081A0C" rx="12"/>
  <circle cx="26" cy="34" r="9" fill="#1FAA48"/>
  <path d="M21.6 34 L25 38 L31 29" stroke="#fff" stroke-width="3" fill="none" stroke-linecap="round" stroke-linejoin="round"/>
  <rect x="42" y="28" width="64" height="4" fill="#1A6A2A" rx="2"/>
  <rect x="42" y="38" width="48" height="4" fill="#124A1E" rx="2"/>
  <rect x="280" y="8" width="112" height="52" fill="#080C1A" rx="12"/>
  <rect x="298" y="16" width="28" height="36" fill="#fff" rx="4"/>
  <rect x="302" y="22" width="20" height="4" fill="#9AACC8" rx="2"/>
  <rect x="302" y="30" width="16" height="3" fill="#B0C0D4" rx="2"/>
  <rect x="302" y="38" width="18" height="3" fill="#4F8FFF" rx="2"/>
  <rect x="334" y="24" width="48" height="14" fill="#1A3A80" rx="4"/>
  <rect x="340" y="28" width="36" height="6" fill="#4F8FFF" rx="2" opacity=".8"/>
</svg>
