<svg viewBox="0 0 400 320" xmlns="http://www.w3.org/2000/svg">
  <circle cx="36" cy="24" r="2.4" fill="#fff" opacity=".7"/>
  <circle cx="100" cy="16" r="1.8" fill="#fff" opacity=".5"/>
  <circle cx="176" cy="30" r="2.8" fill="#fff" opacity=".8"/>
  <circle cx="270" cy="14" r="2" fill="#fff" opacity=".55"/>
  <circle cx="344" cy="32" r="2.4" fill="#fff" opacity=".7"/>
  <circle cx="316" cy="56" r="1.6" fill="#fff" opacity=".5"/>
  <circle cx="60" cy="50" r="1.4" fill="#fff" opacity=".4"/>
  <circle cx="220" cy="40" r="2" fill="#fff" opacity=".45"/>
  <path d="M0 210 C60 140 130 176 200 190 C270 130 340 164 400 180 L400 320 L0 320Z" fill="#0A1808"/>
  <rect x="0" y="224" width="400" height="96" fill="#091206"/>
  <rect x="344" y="110" width="14" height="120" fill="#0E1C10"/>
  <rect x="336" y="108" width="30" height="10" fill="#0C1A0E"/>
  <circle cx="351" cy="102" r="9" fill="#CC2020" opacity=".9"/>
  <circle cx="351" cy="102" r="18" fill="#CC0000" opacity=".1"/>
  <ellipse cx="190" cy="230" rx="36" ry="7" fill="#000" opacity=".55"/>
  <rect x="162" y="176" width="20" height="12" fill="#0A1206" rx="5"/>
  <rect x="192" y="178" width="20" height="12" fill="#0A1206" rx="5"/>
  <rect x="166" y="130" width="20" height="54" fill="#1A2E10" rx="6"/>
  <rect x="194" y="126" width="20" height="58" fill="#1A2E10" rx="6"/>
  <rect x="160" y="110" width="60" height="72" fill="#1E3C12" rx="10"/>
  <rect x="160" y="140" width="60" height="7" fill="#F0C020" opacity=".75" rx="2"/>
  <rect x="160" y="156" width="60" height="7" fill="#F0C020" opacity=".75" rx="2"/>
  <rect x="136" y="114" width="24" height="52" fill="#1E3C12" rx="8"/>
  <rect x="96" y="84" width="52" height="68" fill="#1C2A44" rx="8"/>
  <rect x="100" y="88" width="44" height="56" fill="#0D1E38" rx="4"/>
  <rect x="102" y="90" width="40" height="10" fill="#4F8FFF" rx="2" opacity=".8"/>
  <rect x="102" y="104" width="18" height="18" fill="#2A4A80" rx="2"/>
  <rect x="124" y="104" width="18" height="18" fill="#4F8FFF" rx="2" opacity=".6"/>
  <rect x="102" y="126" width="18" height="14" fill="#2A4A80" rx="2"/>
  <rect x="124" y="126" width="18" height="14" fill="#2A4A80" rx="2"/>
  <rect x="220" y="104" width="24" height="48" fill="#1E3C12" rx="8"/>
  <rect x="226" y="76" width="24" height="36" fill="#E0E8F0" rx="6"/>
  <rect x="230" y="80" width="16" height="26" fill="#0A1628" rx="3"/>
  <rect x="232" y="96" width="3.6" height="8" fill="#3A4A60" rx="1.6"/>
  <rect x="238" y="92" width="3.6" height="12" fill="#3A4A60" rx="1.6"/>
  <rect x="244" y="88" width="3.6" height="16" fill="#3A4A60" rx="1.6"/>
  <line x1="230" y1="86" x2="250" y2="106" stroke="#E03030" stroke-width="4" stroke-linecap="round"/>
  <line x1="250" y1="86" x2="230" y2="106" stroke="#E03030" stroke-width="4" stroke-linecap="round"/>
  <rect x="184" y="92" width="20" height="20" fill="#A86848" rx="4"/>
  <circle cx="194" cy="80" r="26" fill="#A86848"/>
  <path d="M168 74 Q170 58 194 54 Q218 58 220 74 Q214 62 194 60 Q174 62 168 74Z" fill="#301808"/>
  <ellipse cx="185" cy="78" rx="4.4" ry="5" fill="#1A0C06"/>
  <ellipse cx="203" cy="78" rx="4.4" ry="5" fill="#1A0C06"/>
  <circle cx="186.6" cy="76.6" r="1.8" fill="#fff" opacity=".5"/>
  <circle cx="204.6" cy="76.6" r="1.8" fill="#fff" opacity=".5"/>
  <path d="M185 88 Q194 82 203 88" stroke="#7A4828" stroke-width="2.4" fill="none" stroke-linecap="round"/>
  <ellipse cx="194" cy="58" rx="30" ry="12" fill="#FF6B25"/>
  <rect x="164" y="54" width="60" height="10" fill="#FF6B25" rx="2"/>
  <rect x="158" y="62" width="72" height="6" fill="#D85818" rx="2"/>
  <rect x="264" y="96" width="116" height="64" fill="#08180E" rx="14"/>
  <circle cx="288" cy="116" r="10" fill="#22B84A" opacity=".95"/>
  <path d="M283 116 L287 120 L293 111" stroke="#fff" stroke-width="3" fill="none" stroke-linecap="round" stroke-linejoin="round"/>
  <rect x="306" y="110" width="60" height="5" fill="#1A6A30" rx="2"/>
  <rect x="306" y="120" width="44" height="4" fill="#144A22" rx="2"/>
  <rect x="272" y="136" width="100" height="4" fill="#0E2A14" rx="2"/>
  <rect x="272" y="146" width="76" height="4" fill="#0E2A14" rx="2"/>
</svg>
